<?xml version="1.0" encoding="iso-8859-1"?>
<svg xmlns="http://www.w3.org/2000/svg" height="800" width="600" version="1.1" xmlns:xlink="http://www.w3.org/1999/xlink">
<g font-family="Chalkboard">
<text style="text-anchor:start;" font-size="30px" x="20" y="40">Mont Valerien, le 24/03/15 23:10</text>
<text style="text-anchor:end;" font-size="80px" x="460" y="750">17</text>
<text style="text-anchor:start;" font-size="40px" x="460" y="750">,8</text>
<circle cx="480" cy="700" r="7" stroke="black" stroke-width="3" fill="none"/><text style="text-anchor:start;" font-size="35px" x="490" y="715">C</text><text style="text-anchor:start;" font-size="30px" x="430" y="210">1006 hPa</text>
<text style="text-anchor:end;" font-size="28px" x="520" y="655">578 ppm CO</text>
<text style="text-anchor:end;" font-size="20px" x="530" y="665">2</text>
<text style="text-anchor:end;" font-size="100px" x="425" y="160">6</text>
<text style="text-anchor:start;" font-size="50px" x="420" y="155">,5</text>
<circle cx="440" cy="90" r="7" stroke="black" stroke-width="3" fill="none"/><text style="text-anchor:start;" font-size="35px" x="450" y="110">C</text><text style="text-anchor:end;" font-size="30px" x="400" y="210">85%</text>
<text style="text-anchor:end;" font-size="35px" x="525" y="120">8</text>
<circle cx="535" cy="98" r="4" stroke="black" stroke-width="3" fill="none"/><text style="text-anchor:start;" font-size="25px" x="540" y="110">C</text><line x1="500" x2="560" y1="130" y2="130" style="fill:none;stroke:black;stroke-width:2px;"/><text style="text-anchor:end;" font-size="35px" x="525" y="160">4</text>
<circle cx="535" cy="140" r="4" stroke="black" stroke-width="3" fill="none"/><text style="text-anchor:start;" font-size="25px" x="540" y="152">C</text><text style="text-anchor:end;" font-size="35px" x="175" y="310">mercredi</text>
<text style="text-anchor:end;" font-size="35px" x="401" y="310">3</text>
<circle cx="406" cy="290" r="4" stroke="black" stroke-width="2" fill="none"/><text style="text-anchor:start;" font-size="25px" x="411" y="300">C</text><text style="text-anchor:end;" font-size="35px" x="551" y="310">9</text>
<circle cx="556" cy="290" r="4" stroke="black" stroke-width="2" fill="none"/><text style="text-anchor:start;" font-size="25px" x="561" y="300">C</text><line x1="451" x2="511" y1="300" y2="300" style="fill:none;stroke:black;stroke-linecap:round;stroke-width:10px;"/><text style="text-anchor:end;" font-size="35px" x="175" y="400">jeudi</text>
<text style="text-anchor:end;" font-size="35px" x="370" y="400">1</text>
<circle cx="375" cy="380" r="4" stroke="black" stroke-width="2" fill="none"/><text style="text-anchor:start;" font-size="25px" x="380" y="390">C</text><text style="text-anchor:end;" font-size="35px" x="557" y="400">9</text>
<circle cx="562" cy="380" r="4" stroke="black" stroke-width="2" fill="none"/><text style="text-anchor:start;" font-size="25px" x="567" y="390">C</text><line x1="420" x2="517" y1="390" y2="390" style="fill:none;stroke:black;stroke-linecap:round;stroke-width:10px;"/><text style="text-anchor:end;" font-size="35px" x="175" y="490">vendredi</text>
<text style="text-anchor:end;" font-size="35px" x="390" y="490">2</text>
<circle cx="395" cy="470" r="4" stroke="black" stroke-width="2" fill="none"/><text style="text-anchor:start;" font-size="25px" x="400" y="480">C</text><text style="text-anchor:end;" font-size="35px" x="560" y="490">9</text>
<circle cx="565" cy="470" r="4" stroke="black" stroke-width="2" fill="none"/><text style="text-anchor:start;" font-size="25px" x="570" y="480">C</text><line x1="440" x2="520" y1="480" y2="480" style="fill:none;stroke:black;stroke-linecap:round;stroke-width:10px;"/></g>
<g transform="matrix(6.070005,0,0,5.653153,292.99285,506.46284)"><path d="M 42,48 C 29.995672,48.017555 18.003366,48 6,48 L 6,27 c 0,-0.552 0.447,-1 1,-1 0.553,0 1,0.448 1,1 l 0,19 c 32.142331,0.03306 13.954169,0 32,0 l 0,-18 c 0,-0.552 0.447,-1 1,-1 0.553,0 1,0.448 1,1 z"/><path d="m 47,27 c -0.249,0 -0.497,-0.092 -0.691,-0.277 L 24,5.384 1.691,26.723 C 1.292,27.104 0.659,27.091 0.277,26.692 -0.105,26.293 -0.09,25.66 0.308,25.278 L 24,2.616 47.691,25.277 c 0.398,0.382 0.413,1.015 0.031,1.414 C 47.526,26.896 47.264,27 47,27 Z"/><path d="m 39,15 c -0.553,0 -1,-0.448 -1,-1 L 38,8 32,8 C 31.447,8 31,7.552 31,7 31,6.448 31.447,6 32,6 l 8,0 0,8 c 0,0.552 -0.447,1 -1,1 z" /></g><g transform="matrix(4,0,0,4,-35,-40)"><path d="m 59.999,65.64 c -0.266,0 -0.614,0 -1,0 0,-1.372 -0.319,-2.742 -0.943,-4 0.777,0 1.451,0 1.943,0 4.418,0 7.999,-3.58 7.999,-7.998 0,-4.418 -3.581,-7.999 -7.999,-7.999 -1.6,0 -3.083,0.481 -4.334,1.29 -1.231,-5.316 -5.973,-9.289 -11.664,-9.289 -6.627,0 -11.998,5.372 -11.998,11.998 0,5.953 4.339,10.879 10.023,11.822 -0.637,1.217 -0.969,2.549 -1.012,3.887 -7.406,-1.399 -13.012,-7.895 -13.012,-15.709 0,-8.835 7.162,-15.998 15.998,-15.998 6.004,0 11.229,3.312 13.965,8.204 0.664,-0.114 1.337,-0.205 2.033,-0.205 6.627,0 11.998,5.372 11.998,11.999 0,6.627 -5.37,11.998 -11.997,11.998 z m -9.998,-7.071 3.535,3.535 c 1.951,1.953 1.951,5.118 0,7.07 -1.953,1.953 -5.119,1.953 -7.07,0 -1.953,-1.952 -1.953,-5.117 0,-7.07 l 3.535,-3.535 z" /></g>
<g transform="matrix(1.9,0,0,1.9,160,200)"><path d="m 59.999,65.64 c -0.266,0 -0.614,0 -1,0 0,-1.372 -0.319,-2.742 -0.943,-4 0.777,0 1.451,0 1.943,0 4.418,0 7.999,-3.58 7.999,-7.998 0,-4.418 -3.581,-7.999 -7.999,-7.999 -1.6,0 -3.083,0.481 -4.334,1.29 -1.231,-5.316 -5.973,-9.289 -11.664,-9.289 -6.627,0 -11.998,5.372 -11.998,11.998 0,5.953 4.339,10.879 10.023,11.822 -0.637,1.217 -0.969,2.549 -1.012,3.887 -7.406,-1.399 -13.012,-7.895 -13.012,-15.709 0,-8.835 7.162,-15.998 15.998,-15.998 6.004,0 11.229,3.312 13.965,8.204 0.664,-0.114 1.337,-0.205 2.033,-0.205 6.627,0 11.998,5.372 11.998,11.999 0,6.627 -5.37,11.998 -11.997,11.998 z m -9.998,-7.071 3.535,3.535 c 1.951,1.953 1.951,5.118 0,7.07 -1.953,1.953 -5.119,1.953 -7.07,0 -1.953,-1.952 -1.953,-5.117 0,-7.07 l 3.535,-3.535 z" /></g>
<g transform="matrix(1.9,0,0,1.9,160,290)"><path d="m 59.999,65.64 c -0.266,0 -0.614,0 -1,0 0,-1.372 -0.319,-2.742 -0.943,-4 0.777,0 1.451,0 1.943,0 4.418,0 7.999,-3.58 7.999,-7.998 0,-4.418 -3.581,-7.999 -7.999,-7.999 -1.6,0 -3.083,0.481 -4.334,1.29 -1.231,-5.316 -5.973,-9.289 -11.664,-9.289 -6.627,0 -11.998,5.372 -11.998,11.998 0,5.953 4.339,10.879 10.023,11.822 -0.637,1.217 -0.969,2.549 -1.012,3.887 -7.406,-1.399 -13.012,-7.895 -13.012,-15.709 0,-8.835 7.162,-15.998 15.998,-15.998 6.004,0 11.229,3.312 13.965,8.204 0.664,-0.114 1.337,-0.205 2.033,-0.205 6.627,0 11.998,5.372 11.998,11.999 0,6.627 -5.37,11.998 -11.997,11.998 z m -9.998,-7.071 3.535,3.535 c 1.951,1.953 1.951,5.118 0,7.07 -1.953,1.953 -5.119,1.953 -7.07,0 -1.953,-1.952 -1.953,-5.117 0,-7.07 l 3.535,-3.535 z" /></g>
<g transform="matrix(1.9,0,0,1.9,160,380)"><path d="m 59.999,65.64 c -0.266,0 -0.614,0 -1,0 0,-1.372 -0.319,-2.742 -0.943,-4 0.777,0 1.451,0 1.943,0 4.418,0 7.999,-3.58 7.999,-7.998 0,-4.418 -3.581,-7.999 -7.999,-7.999 -1.6,0 -3.083,0.481 -4.334,1.29 -1.231,-5.316 -5.973,-9.289 -11.664,-9.289 -6.627,0 -11.998,5.372 -11.998,11.998 0,5.953 4.339,10.879 10.023,11.822 -0.637,1.217 -0.969,2.549 -1.012,3.887 -7.406,-1.399 -13.012,-7.895 -13.012,-15.709 0,-8.835 7.162,-15.998 15.998,-15.998 6.004,0 11.229,3.312 13.965,8.204 0.664,-0.114 1.337,-0.205 2.033,-0.205 6.627,0 11.998,5.372 11.998,11.999 0,6.627 -5.37,11.998 -11.997,11.998 z m -9.998,-7.071 3.535,3.535 c 1.951,1.953 1.951,5.118 0,7.07 -1.953,1.953 -5.119,1.953 -7.07,0 -1.953,-1.952 -1.953,-5.117 0,-7.07 l 3.535,-3.535 z" /></g>
<path style="fill:none;fill-rule:evenodd;stroke:#000000;stroke-width:6px;stroke-linecap:round;stroke-linejoin:round;stroke-opacity:1" d="m 40,650 20,0 0,120 110,0 0,-120 20,0" /><line x1="65" x2="75" y1="675" y2="675" style="fill:none;stroke:black;stroke-width:2px;"/><line x1="65" x2="75" y1="700" y2="700" style="fill:none;stroke:black;stroke-width:2px;"/><line x1="65" x2="75" y1="725" y2="725" style="fill:none;stroke:black;stroke-width:2px;"/><line x1="65" x2="75" y1="750" y2="750" style="fill:none;stroke:black;stroke-width:2px;"/><text style="text-anchor:end;" font-size="40px" x="132" y="730">11</text><text style="text-anchor:start;" font-size="30px" x="132" y="730">,0</text><text style="text-anchor:start;" font-size="20px" x="78" y="756">mm/24h</text><text style="text-anchor:end;" font-size="40px" x="170" y="185">0</text><text style="text-anchor:start;" font-size="30px" x="170" y="185">,7</text></svg>